<svg aria-hidden="true" role="presentation" width="512" height="512" viewBox="0 0 512 512" fill="none" xmlns="http://www.w3.org/2000/svg"><g clip-path="url(#clip0_280_585425)"><path opacity="0.2" d="M342.992 397.889C341.821 398.353 341.022 398.669 340.31 398.581C314.507 398.493 274.638 398.503 269.85 398.856L269.573 398.883L269.304 398.825C202.777 384.297 137.354 326.347 131.53 311.171L131.654 311.121C130.95 309.446 129.524 304.704 125.201 290.415C121.524 278.275 116.745 262.418 112.285 247.627C106.076 227.071 100.212 207.591 99.267 204.531L99.0691 204.342L96.3236 155.142L127.583 179.437L135.121 201.38C135.325 201.896 135.705 202.753 136.146 203.813C140.439 213.775 143.023 221.081 142.341 225.321C145.139 227.565 148.278 234.611 153.898 250.362C154.879 253.1 155.871 255.915 156.237 256.634L176.027 280.74C173.441 277.321 170.986 274.077 168.955 271.384C162.905 263.414 160.634 260.426 159.879 259.038C150.909 244.265 134.883 195.592 125.295 166.501C123.017 159.608 121.102 153.785 119.735 149.76C118.303 146.872 116.103 142.56 113.491 137.465C103.859 118.634 89.3832 90.2647 85.7245 79.2084C85.0717 78.13 85.9682 77.0757 86.7118 76.2054L104.15 55.7888L132.247 80.9656L146.405 127.149L140.21 129.601C143.308 131.357 146.691 133.473 148.148 136.063C149.094 136.532 150.449 137.312 152.51 138.47L179.484 153.706L221.302 232.828L221.344 232.935C232.625 262.466 305.087 297.638 346.561 313.92C349.74 313.34 355.142 313.916 357.965 316.171C360.73 316.31 368.891 316.905 394.004 318.727C398.263 317.349 402.057 316.094 405.454 314.975C435.183 305.118 436.347 304.739 450.342 321.781C454.429 326.765 460.054 333.608 468.295 342.13L470.624 344.54L467.378 345.311C465.373 345.796 461.283 346.202 456.087 346.717C446.213 347.706 432.699 349.045 426.025 351.687C424.446 352.313 423.636 352.86 423.234 353.245C423.476 355.103 424.368 361.763 424.368 361.763L422.549 361.784C420.327 362.705 409.874 367.523 397.823 373.075C376.569 382.868 350.11 395.071 342.992 397.889ZM279.22 352.099C277.81 351.752 276.35 351.384 274.915 351.026C273.254 350.615 271.928 350.276 271.089 350.073C270.926 350.076 270.766 350.037 270.589 350.004C272.624 351.461 274.488 352.8 275.521 353.543L279.213 352.081L279.22 352.099Z" fill="#76766D"></path><path opacity="0.1" d="M340.585 396.566C314.377 396.486 274.601 396.518 269.771 396.869C203.92 382.532 138.752 324.394 133.431 310.539C133.275 310.457 101.227 203.79 101.1 203.676L98.6408 159.454L126.126 180.805L133.461 202.183C135.05 206.196 142.905 222.561 140.08 226.576C144.404 225.727 153.307 255.421 154.802 257.849L191.254 302.211C211.384 322.097 159.623 256.7 161.621 258.168C150.656 240.118 128.81 170.107 121.65 149.276C115.054 135.987 92.0005 92.2778 87.6286 78.6425L104.519 58.8693L130.738 82.3642L144.191 126.3L135.938 129.568C138.949 131.416 145.313 134.32 146.809 137.631L178.184 155.325L219.646 233.757C231.445 264.646 306.305 300.232 346.432 315.92C349.246 315.196 354.938 315.778 357.146 317.985L394.271 320.645C447.81 303.31 429.644 304.771 466.937 343.377C460.26 344.973 425.061 346.09 421.257 352.609L422.205 359.773C421.364 359.777 341.458 397.268 340.55 396.58L340.585 396.566ZM327.563 357.451C330.085 357.911 335.425 360.974 333.8 358.166L327.563 357.451ZM298.891 354.156C295.387 354.33 275.12 348.981 271.305 348.109C270.418 348.46 259.949 341.101 260.623 345.086L275.328 355.678L281.345 353.296C286.947 357.385 292.873 355.758 298.873 354.163L298.891 354.156Z" fill="#76766C"></path><path d="M433.936 312.197L394.729 324.167L356.065 321.381L351.979 319.096L345.729 319.435L296.363 296.774L292.142 297.726C253.586 276.187 227.372 255.286 216.356 235.187L175.425 157.779L144.401 140.282L141.602 136.79L132.005 131.368L130.732 127.272L139.621 123.752L127.521 84.2214L105.005 64.0543L92.1643 79.058L99.6291 97.0308L125.285 147.522L152.307 228.321L165.003 255.929L202.467 306.695L195.104 311.376L188.457 304.437L151.527 259.478L140.659 231.146L135.888 228.064L137.192 221.51L129.91 203.115L122.945 182.829L102.99 167.316L104.953 202.707L137.041 308.794C142.384 322.288 204.568 376.391 268.819 392.789C270.345 392.185 340.6 392.383 340.6 392.383L418.075 357.109L417.176 350.379L426.742 344.107L459.198 340.129L433.953 312.19L433.936 312.197ZM339.405 361.68C339.405 361.68 337.679 362.712 335.732 363.134C333.767 363.563 322.16 359.286 322.16 359.286L301.479 357.184L287.764 360.129L281.256 357.119L274.815 359.669L255.984 346.114L259.197 338.106L272.577 344.166L294.165 349.441L336.487 354.311L339.398 361.662L339.405 361.68Z" fill="#FFFFE4"></path></g><defs><clipPath id="clip0_280_585425"><rect width="512" height="512" fill="white"></rect></clipPath></defs></svg>